<svg width="48" height="64" viewBox="0 0 48 64" fill="none" xmlns="http://www.w3.org/2000/svg">
<path d="M33.446 3.38531C31.1672 3.78711 29.4595 6.47343 29.1352 8.80961L26.314 29.3703C24.7958 40.2677 21.6503 45.052 19.4805 45.4337C18.5047 45.6059 17.9623 45.052 18.5047 41.1602L22.7351 10.3709C23.0594 7.92852 22.3821 5.33691 19.8881 5.77601L6.43926 8.14664L1.04367 44.5641C-1.12605 59.8066 2.88621 64.3039 10.3712 62.9837C25.5391 60.3089 30.0737 45.3763 33.5062 34.6166L29.4452 36.8151L35.4751 29.3301L37.4582 37.5613L34.5767 34.72C33.0528 43.1664 30.6305 51.5784 27.3443 59.8009L27.264 60.0047L39.3036 57.8809L47.331 0.934326L33.4488 3.38244L33.446 3.38531Z" fill="#773A88"/>
</svg>
